<svg width="67" height="67" viewBox="0 0 67 67" fill="none" xmlns="http://www.w3.org/2000/svg">
<path d="M18.2667 57.8667C9.76151 57.8667 2.8667 50.9719 2.8667 42.4667C2.8667 36.1922 6.61911 30.7942 12.0022 28.3942" stroke="#595959" stroke-width="3" stroke-linecap="round"/>
<path d="M34.5468 27.0667H49.0666C57.5718 27.0667 64.4666 33.9615 64.4666 42.4667C64.4666 50.9719 57.5718 57.8667 49.0666 57.8667" stroke="#595959" stroke-width="3" stroke-linecap="round"/>
<path d="M44.3622 26.9376C44.562 25.9114 44.6666 24.8512 44.6666 23.7666C44.6666 14.6539 37.2793 7.26663 28.1666 7.26663C19.0539 7.26663 11.6666 14.6539 11.6666 23.7666C11.6666 28.8844 13.9966 33.458 17.6537 36.4845" stroke="#595959" stroke-width="3" stroke-linecap="round"/>
<path d="M33.6667 57.8667L33.6667 38.0667" stroke="#595959" stroke-width="3" stroke-linecap="round"/>
<path fill-rule="evenodd" clip-rule="evenodd" d="M33.6666 66.6666L28.3866 59.6266C28.2438 59.4362 28.1666 59.2046 28.1666 58.9666C28.1666 58.3591 28.6591 57.8666 29.2666 57.8666L38.0666 57.8666C38.3046 57.8666 38.5362 57.9438 38.7266 58.0866C39.2126 58.4511 39.3111 59.1406 38.9466 59.6266L33.6666 66.6666Z" fill="#595959"/>
</svg>
