<?xml version="1.0" ?><svg height="16px" version="1.1" viewBox="0 0 16 16" width="16px" xmlns="http://www.w3.org/2000/svg" xmlns:sketch="http://www.bohemiancoding.com/sketch/ns" xmlns:xlink="http://www.w3.org/1999/xlink"><title/><defs/><g fill="none" fill-rule="evenodd" id="Icons with numbers" stroke="none" stroke-width="1"><g fill="#000000" id="Group" transform="translate(-672.000000, -288.000000)"><path d="M679,293 L679,296 L677,296 L680,300 L683,296 L681,296 L681,293 Z M672,298 C672,296.651721 672.895887,295.507545 674.127761,295.131093 C674.500314,293.897932 675.645295,293 677,293 C677.174013,293 677.344566,293.014816 677.510466,293.043254 C678.195719,291.823839 679.50165,291 681,291 C683.209139,291 685,292.790861 685,295 C686.668415,295.005076 688,296.346276 688,298 C688,299.653483 686.652611,301 684.990522,301 L675.009478,301 C673.336631,301 672,299.656854 672,298 Z M672,298" id="Rectangle 169 copy 2"/></g></g></svg>