<?xml version="1.0" ?><svg data-name="Layer 1" id="Layer_1" viewBox="0 0 500 500" xmlns="http://www.w3.org/2000/svg"><defs><style>.cls-1{fill:#81cc7d;}.cls-2{fill:#9cef95;}.cls-3{fill:#fff;}</style></defs><title/><circle class="cls-1" cx="250" cy="250" r="250"/><circle class="cls-2" cx="250" cy="250" r="203.65"/><path class="cls-3" d="M357.79,246.46a29.62,29.62,0,0,0-26.69-16.69H288.95a28.27,28.27,0,0,0,.34-3.69V156.28a39.31,39.31,0,1,0-78.62,0v69.81a28.4,28.4,0,0,0,.34,3.69H168.92a29.7,29.7,0,0,0-23.44,47.94L226.61,381.9a29.67,29.67,0,0,0,46.81,0l81.12-104.19A29.53,29.53,0,0,0,357.79,246.46Zm-23,15.94L253.67,366.53a4.56,4.56,0,0,1-3.69,1.81,4.72,4.72,0,0,1-3.69-1.81L165.17,262.4a4.46,4.46,0,0,1-.5-4.94,4.57,4.57,0,0,1,4.25-2.69h66.75v-98.5a14.31,14.31,0,1,1,28.62,0v98.5h66.81a4.4,4.4,0,0,1,4.19,2.69A4.46,4.46,0,0,1,334.79,262.4Z"/></svg>